<?xml version="1.0" standalone="no"?>
<!DOCTYPE svg PUBLIC "-//W3C//DTD SVG 20010904//EN"
 "http://www.w3.org/TR/2001/REC-SVG-20010904/DTD/svg10.dtd">
<svg version="1.0" xmlns="http://www.w3.org/2000/svg"
 width="896.000000pt" height="896.000000pt" viewBox="0 0 896.000000 896.000000"
 preserveAspectRatio="xMidYMid meet">
<metadata>
Created by potrace 1.14, written by Peter Selinger 2001-2017
</metadata>
<g transform="translate(0.000000,896.000000) scale(0.100000,-0.100000)"
fill="#000000" stroke="none">
<path d="M1917 7363 c-1 -1 -22 -4 -47 -8 -149 -21 -271 -167 -269 -320 1 -27
0 -54 -1 -60 -2 -12 -2 -129 1 -141 1 -5 1 -13 0 -19 -5 -22 -3 -246 1 -251 3
-2 2 -24 -2 -49 -4 -24 -4 -49 0 -55 4 -7 4 -26 1 -43 -4 -18 -4 -49 0 -69 3
-21 4 -38 0 -38 -3 0 -5 -26 -4 -57 3 -103 4 -228 3 -238 -2 -15 -2 -109 0
-120 1 -5 2 -23 0 -40 l-1 -30 -14 38 c-19 50 -50 94 -94 135 -63 58 -129 80
-235 80 -43 0 -79 2 -81 4 -3 2 -29 1 -60 -2 -30 -3 -60 -3 -65 0 -6 4 -33 3
-60 0 -28 -4 -50 -4 -50 -1 0 3 -25 6 -55 6 -30 0 -55 -4 -55 -8 0 -5 -4 -5
-10 -2 -10 6 -164 7 -222 1 -45 -5 -128 -36 -128 -47 0 -5 -6 -9 -13 -9 -19 0
-83 -75 -106 -125 -26 -55 -47 -225 -28 -225 5 0 5 -5 2 -10 -4 -6 -6 -34 -6
-63 1 -68 1 -74 1 -162 0 -88 0 -94 -1 -162 0 -29 2 -57 6 -63 3 -5 2 -10 -3
-10 -5 0 -6 -19 -2 -43 3 -24 3 -55 -1 -69 -4 -14 -3 -31 1 -38 5 -8 5 -23 0
-34 -4 -12 -4 -30 0 -41 4 -11 4 -32 0 -46 -4 -15 -4 -32 0 -40 5 -7 6 -17 3
-22 -7 -12 -7 -282 0 -294 3 -5 2 -15 -3 -22 -4 -8 -4 -27 0 -42 5 -16 6 -29
2 -29 -4 0 -7 -16 -7 -35 0 -19 3 -35 7 -35 4 0 3 -12 -1 -27 -5 -16 -5 -37
-1 -48 4 -11 5 -24 2 -30 -3 -5 -5 -32 -3 -60 3 -56 3 -88 2 -125 0 -14 -1
-36 -1 -50 -1 -14 -1 -32 -1 -40 1 -8 1 -28 0 -45 0 -16 0 -36 0 -42 1 -7 1
-19 1 -25 1 -7 0 -48 -2 -91 -2 -42 1 -77 5 -77 5 0 5 -5 2 -10 -4 -6 -6 -34
-6 -63 2 -105 2 -219 0 -324 0 -29 2 -57 6 -63 3 -5 2 -10 -3 -10 -6 0 -9 -8
-7 -17 2 -10 6 -48 9 -84 6 -82 36 -150 93 -206 68 -67 134 -91 247 -91 43 0
79 -2 81 -4 3 -2 29 -1 60 2 30 3 60 3 65 0 6 -4 33 -3 60 0 28 4 50 4 50 1 0
-3 25 -6 55 -6 30 0 55 4 55 8 0 5 4 5 10 2 5 -3 59 -6 118 -6 142 1 215 24
282 91 31 31 72 86 76 100 0 3 4 19 9 35 l9 30 6 -25 c3 -14 3 -42 -1 -62 -3
-21 -4 -39 -2 -42 4 -4 6 -173 3 -193 -2 -11 -1 -129 1 -139 1 -5 0 -13 -1
-19 -2 -12 -2 -128 1 -141 1 -5 0 -13 -1 -19 -2 -12 -2 -128 1 -141 1 -5 1
-13 0 -19 -3 -13 -3 -248 0 -255 1 -3 1 -8 1 -11 -10 -85 4 -231 27 -280 32
-68 121 -156 164 -163 7 -1 17 -4 22 -8 14 -8 83 -19 126 -18 44 0 66 0 82 -1
15 0 75 0 102 1 11 1 27 1 35 0 8 0 26 0 40 1 29 1 44 1 121 -2 31 -1 60 0 65
3 5 3 18 2 29 -2 11 -4 32 -4 48 1 15 4 27 5 27 1 0 -6 125 -7 140 -1 3 1 10
0 15 -1 6 -1 74 -2 153 -1 143 1 161 1 185 0 15 0 75 0 102 1 11 1 27 1 35 0
8 0 26 0 40 1 14 1 39 1 55 1 17 -1 58 8 91 19 106 34 193 138 209 249 4 25 8
46 10 48 2 2 -1 17 -5 33 -5 16 -5 29 0 29 5 0 5 13 0 30 -5 17 -5 30 0 30 5
0 5 13 0 30 -5 17 -5 30 0 30 5 0 5 13 0 30 -5 19 -5 30 1 30 6 0 7 4 4 10 -8
13 -11 108 -3 115 3 4 2 20 -2 36 -5 16 -6 29 -2 29 4 0 7 34 7 75 0 41 -3 75
-7 75 -4 0 -3 12 1 28 5 15 5 37 0 49 -4 12 -4 25 1 28 5 3 5 18 0 35 -5 17
-6 30 -2 30 4 0 7 34 7 75 0 41 -3 75 -7 75 -4 0 -3 12 1 28 7 28 6 75 -3 99
-3 7 -1 13 4 13 5 0 5 13 0 30 -5 17 -5 30 0 30 5 0 5 13 0 30 -5 17 -5 30 0
30 5 0 5 13 0 30 -5 17 -5 30 0 30 5 0 5 13 0 30 -5 17 -5 30 0 30 5 0 5 13 0
30 -5 17 -5 30 0 30 5 0 5 13 0 30 -5 17 -5 32 0 35 5 3 6 15 1 28 -5 13 -5
30 -1 38 5 8 5 21 0 28 -4 8 -4 27 0 42 5 16 5 29 0 29 -4 0 -6 9 -3 19 4 16
10 18 34 11 16 -5 29 -5 29 0 0 4 15 5 33 1 17 -4 47 -4 65 0 18 3 35 3 38 -2
2 -4 15 -4 28 1 13 5 27 6 30 2 8 -8 103 -5 116 3 6 3 10 2 10 -3 0 -6 14 -7
35 -2 19 4 35 5 35 1 0 -3 18 -6 40 -6 22 0 40 3 40 7 0 4 13 3 29 -2 16 -4
32 -5 36 -2 7 7 91 6 104 -2 5 -4 12 -2 16 3 3 7 15 7 30 1 15 -6 27 -6 30 0
3 6 15 6 30 0 15 -6 27 -6 30 0 3 6 15 6 30 0 15 -6 27 -6 30 0 3 6 15 6 30 0
15 -6 27 -6 30 0 3 6 15 6 30 0 15 -6 27 -6 30 0 3 6 15 6 30 0 15 -6 27 -6
30 0 3 6 15 6 30 0 15 -6 27 -6 30 0 3 6 15 6 30 0 15 -6 27 -6 30 0 3 5 16 6
28 2 24 -8 79 -7 103 2 8 3 14 1 14 -3 0 -5 16 -5 35 -1 19 4 35 5 35 1 0 -3
18 -6 40 -6 22 0 40 3 40 7 0 4 13 3 30 -2 17 -5 32 -5 35 0 3 5 16 5 28 1 12
-5 34 -5 49 0 16 4 28 4 28 -1 0 -4 16 -4 35 0 19 4 35 5 35 1 0 -3 18 -6 40
-6 22 0 40 3 40 7 0 4 13 3 30 -2 18 -5 32 -5 35 1 4 5 14 5 25 -1 16 -9 19
-23 19 -103 1 -101 1 -121 1 -139 0 -7 0 -37 1 -66 1 -29 0 -55 -4 -58 -3 -3
-1 -19 3 -35 5 -16 6 -29 2 -29 -4 0 -7 -34 -7 -75 0 -41 3 -75 7 -75 4 0 3
-12 -1 -27 -7 -29 -6 -76 3 -100 3 -7 1 -13 -4 -13 -5 0 -5 -13 0 -30 5 -17 5
-30 0 -30 -5 0 -5 -13 0 -30 5 -17 5 -30 0 -30 -5 0 -5 -13 0 -30 5 -17 5 -30
0 -30 -5 0 -5 -13 0 -30 5 -17 5 -30 0 -30 -5 0 -5 -13 0 -30 5 -17 5 -30 0
-30 -5 0 -5 -13 0 -30 5 -17 5 -30 0 -30 -5 0 -5 -13 0 -30 5 -17 5 -30 0 -30
-5 0 -5 -13 0 -30 5 -19 5 -30 -1 -30 -6 0 -7 -4 -4 -10 8 -13 11 -108 3 -115
-3 -4 -2 -20 2 -36 5 -16 6 -29 2 -29 -4 0 -7 -34 -7 -75 0 -41 3 -75 7 -75 4
0 3 -13 -2 -29 -4 -16 -7 -31 -5 -33 2 -2 6 -23 10 -47 15 -99 87 -196 178
-239 25 -12 74 -24 109 -27 34 -4 68 -8 75 -10 7 -2 15 0 18 6 4 5 11 6 17 3
12 -8 292 -9 305 -1 5 3 15 2 22 -3 8 -4 25 -4 40 0 14 4 35 4 46 0 11 -4 29
-4 41 0 11 5 26 5 34 0 7 -4 24 -5 38 -1 14 4 45 4 69 1 24 -4 43 -3 43 2 0 5
5 6 10 3 6 -4 34 -6 63 -6 68 1 74 1 162 1 88 0 94 0 162 -1 29 0 57 2 63 6 5
3 10 3 10 -2 0 -19 170 2 225 28 50 23 125 87 125 106 0 7 4 13 9 13 12 0 42
83 47 128 2 20 4 71 3 112 0 41 0 84 0 95 0 11 0 38 0 60 0 22 0 47 0 55 1 8
0 62 0 120 0 58 0 112 0 120 0 8 0 74 0 145 0 72 0 148 1 170 1 22 2 46 1 53
-2 19 -2 43 -1 95 1 26 -1 51 -5 56 -3 5 -2 12 3 15 5 3 6 27 3 53 -4 26 -3
64 0 83 4 19 7 27 8 18 0 -9 6 -29 12 -45 6 -15 9 -28 8 -28 -6 0 37 -51 74
-86 67 -66 163 -94 305 -89 17 0 38 1 45 1 6 0 73 0 147 -1 74 0 140 0 145 1
6 1 13 1 17 0 4 0 38 -1 75 -1 37 0 90 0 116 0 155 -3 300 119 322 270 10 64
11 120 3 120 -4 0 -3 12 1 28 5 15 5 36 1 47 -4 11 -5 24 -2 30 3 5 5 32 3 60
-3 56 -3 88 -2 125 0 14 1 36 1 50 1 14 1 32 1 40 -1 8 -1 29 0 45 0 17 0 36
0 43 -2 26 -2 40 0 132 0 52 0 100 -1 105 -1 6 -2 12 0 15 5 14 4 80 -1 80 -4
0 -3 18 1 40 4 22 4 40 -1 40 -4 0 -4 13 1 28 4 16 4 35 -1 43 -4 8 -4 21 0
28 5 7 5 28 1 47 -4 19 -5 34 -1 34 3 0 5 21 3 47 -1 27 -2 68 -2 93 2 94 2
135 0 145 -1 6 -2 12 0 15 5 14 4 80 -1 80 -4 0 -3 18 1 40 4 22 4 40 -1 40
-4 0 -4 13 1 28 4 16 4 35 -1 43 -4 8 -4 21 0 28 5 7 5 28 1 47 -4 19 -5 34
-1 34 3 0 5 21 3 47 -3 60 -3 97 0 151 2 23 -1 42 -5 42 -5 0 -5 5 -2 10 4 6
6 34 6 63 -2 105 -2 219 0 324 0 29 -2 57 -6 63 -3 5 -2 10 3 10 6 0 9 8 7 18
-2 9 -6 47 -9 83 -6 82 -36 150 -93 206 -68 67 -134 91 -247 91 -43 0 -79 2
-81 4 -3 2 -29 1 -60 -2 -30 -3 -60 -3 -65 0 -6 4 -33 3 -60 0 -28 -4 -50 -4
-50 -1 0 3 -25 6 -55 6 -30 0 -55 -4 -55 -8 0 -5 -4 -5 -10 -2 -13 8 -184 8
-235 -1 -21 -3 -58 -15 -80 -25 -48 -23 -125 -87 -125 -105 0 -6 -7 -15 -16
-18 -8 -3 -13 -10 -9 -15 3 -5 1 -12 -5 -16 -5 -3 -10 -15 -10 -26 0 -10 -5
-19 -11 -19 -5 0 -7 -5 -3 -12 4 -7 3 -8 -5 -4 -6 4 -9 11 -7 15 7 11 10 250
4 257 -3 3 -2 20 2 38 4 19 4 40 -1 47 -4 7 -6 16 -3 21 4 6 5 45 3 108 0 12
0 108 0 190 0 8 1 64 2 123 1 59 -1 110 -4 113 -2 3 -1 20 3 38 4 19 4 40 -1
47 -4 7 -6 16 -3 21 6 9 6 66 1 183 -3 68 -9 102 -27 140 -38 79 -105 138
-195 170 -34 12 -230 23 -240 13 -3 -3 -21 -2 -39 2 -19 4 -40 4 -47 -1 -7 -4
-17 -5 -23 -2 -8 6 -107 7 -132 2 -5 -1 -12 0 -16 1 -18 4 -79 3 -84 -3 -3 -3
-12 -3 -20 0 -23 9 -214 9 -214 0 0 -5 -5 -5 -10 -2 -6 4 -34 6 -63 6 -68 -1
-74 -1 -162 -1 -88 0 -94 0 -162 1 -29 0 -57 -2 -63 -6 -5 -3 -10 -3 -10 2 0
19 -170 -2 -225 -28 -50 -23 -125 -87 -125 -106 0 -7 -4 -13 -9 -13 -14 0 -43
-88 -47 -143 -3 -29 -6 -57 -8 -63 -2 -6 0 -17 4 -24 5 -8 5 -21 0 -30 -5 -9
-5 -22 0 -30 5 -8 5 -21 0 -30 -5 -9 -5 -22 0 -30 4 -7 4 -24 0 -36 -6 -14 -5
-26 0 -29 5 -3 5 -18 0 -35 -5 -17 -5 -30 0 -30 5 0 5 -13 0 -30 -5 -17 -5
-30 0 -30 5 0 5 -13 0 -30 -5 -16 -6 -30 -2 -30 8 0 7 -68 -1 -76 -3 -3 -2
-17 3 -30 6 -14 6 -26 0 -29 -5 -3 -6 -15 -1 -27 4 -12 5 -38 1 -59 -4 -21 -4
-43 1 -50 4 -7 4 -20 -1 -29 -5 -9 -5 -22 0 -30 5 -8 5 -21 0 -30 -5 -9 -5
-22 0 -30 4 -7 4 -24 0 -36 -6 -14 -5 -26 0 -29 5 -3 5 -18 0 -35 -5 -17 -5
-30 0 -30 5 0 5 -13 0 -30 -5 -17 -5 -30 0 -30 5 0 5 -13 0 -30 -5 -16 -6 -30
-2 -30 8 0 7 -68 -1 -76 -3 -3 -2 -17 3 -30 6 -14 6 -26 0 -29 -5 -3 -6 -15
-1 -27 4 -12 5 -38 1 -59 -4 -21 -4 -43 1 -50 4 -7 4 -20 -1 -29 -5 -9 -5 -22
-1 -29 5 -7 5 -27 1 -44 -3 -18 -3 -47 1 -64 4 -18 3 -33 -1 -33 -5 0 -5 -13
0 -29 7 -24 5 -30 -11 -34 -10 -3 -19 -1 -19 3 0 5 -13 5 -29 0 -15 -4 -34 -4
-42 0 -7 5 -20 5 -28 0 -8 -4 -25 -4 -38 1 -13 5 -25 4 -28 -1 -3 -6 -15 -6
-30 0 -15 6 -27 6 -30 0 -3 -6 -15 -6 -30 0 -15 6 -27 6 -30 0 -3 -6 -15 -6
-30 0 -15 6 -27 6 -30 0 -3 -6 -15 -6 -30 0 -15 6 -27 6 -30 0 -3 -6 -15 -6
-30 0 -15 6 -27 6 -30 0 -3 -6 -15 -6 -30 0 -15 6 -27 6 -30 0 -3 -5 -16 -6
-28 -2 -24 8 -79 7 -103 -2 -8 -3 -14 -1 -14 3 0 5 -16 5 -35 1 -19 -4 -35 -5
-35 -1 0 3 -18 6 -40 6 -22 0 -40 -3 -40 -7 0 -4 -13 -3 -29 2 -16 4 -32 5
-36 2 -7 -7 -91 -6 -104 2 -5 4 -12 2 -16 -3 -3 -7 -15 -7 -30 -1 -15 6 -27 6
-30 -1 -4 -5 -11 -6 -17 -3 -5 3 -83 6 -173 6 -90 0 -168 -3 -173 -6 -6 -3
-13 -2 -17 3 -3 7 -15 7 -30 1 -13 -5 -26 -6 -29 -2 -3 5 -30 5 -61 2 -31 -3
-58 -3 -61 2 -3 4 -15 3 -28 -2 -13 -5 -27 -6 -30 -3 -8 8 -76 9 -76 1 0 -4
-13 -3 -30 2 -17 5 -30 5 -30 1 0 -4 -14 -6 -30 -3 -31 4 -58 36 -41 47 6 3 6
17 1 35 -5 17 -6 30 -2 30 4 0 7 34 7 75 0 41 -3 75 -7 75 -4 0 -3 12 1 28 7
28 6 75 -3 99 -3 7 -2 13 2 13 4 0 7 29 7 65 0 36 -3 65 -7 65 -4 0 -3 14 2
30 5 17 5 30 0 30 -5 0 -5 13 0 30 5 17 5 30 0 30 -5 0 -5 13 0 29 4 15 4 34
0 42 -5 7 -5 20 0 29 5 9 5 22 0 30 -5 8 -5 21 0 30 5 9 5 22 0 30 -5 8 -5 21
0 30 5 9 5 22 1 29 -5 7 -5 29 -1 49 3 21 3 49 -1 65 -4 15 -4 27 -1 27 4 0 7
29 7 65 0 36 -3 65 -7 65 -4 0 -3 14 2 30 5 17 5 30 0 30 -5 0 -5 13 0 30 5
17 5 30 0 30 -5 0 -5 13 0 29 4 15 4 34 0 42 -5 7 -5 20 0 29 5 9 5 22 0 30
-5 8 -5 21 0 30 5 9 5 22 0 30 -5 8 -5 21 0 31 5 9 7 19 4 21 -2 3 -6 39 -8
79 -6 141 -84 244 -221 294 -34 12 -230 23 -240 13 -3 -3 -21 -2 -39 2 -19 4
-40 4 -47 -1 -7 -4 -17 -5 -23 -2 -8 6 -107 7 -132 2 -5 -1 -12 0 -16 1 -5 1
-24 2 -43 2 -19 0 -38 -1 -42 -2 -5 -1 -12 -1 -18 0 -5 1 -53 1 -105 1 -92 -2
-106 -2 -132 0 -16 0 -76 0 -103 -1 -11 -1 -27 -1 -35 0 -8 0 -26 0 -40 -1
-29 -1 -44 -1 -121 2 -31 1 -60 0 -65 -3 -5 -3 -18 -2 -29 2 -11 4 -32 4 -47
-1 -16 -4 -28 -5 -28 -1 0 6 -68 11 -73 5z m383 -645 c0 8 128 7 136 -1 3 -3
16 -2 29 3 13 5 26 6 29 2 8 -8 103 -5 116 3 6 3 10 2 10 -3 0 -6 14 -7 35 -2
19 4 35 5 35 1 0 -3 18 -6 40 -6 22 0 40 3 40 7 0 4 13 3 29 -2 16 -4 33 -4
38 1 5 5 16 4 27 -4 17 -12 19 -38 14 -192 0 -5 1 -21 2 -35 2 -30 2 -189 -1
-232 0 -7 0 -48 1 -90 1 -43 -1 -82 -4 -87 -4 -5 -2 -12 3 -15 4 -3 5 -23 1
-45 -4 -22 -4 -45 1 -52 4 -7 6 -16 3 -21 -5 -8 -6 -54 -2 -176 2 -45 1 -82
-2 -82 -6 0 -2 -130 5 -147 2 -7 1 -13 -3 -13 -7 0 -7 -238 0 -246 3 -2 2 -24
-2 -49 -4 -24 -3 -49 0 -56 4 -6 5 -23 1 -37 -4 -14 -4 -45 -1 -69 4 -24 3
-43 -1 -43 -4 0 -5 -8 -3 -17 7 -26 10 -283 4 -283 -6 0 -2 -130 5 -147 2 -7
1 -13 -3 -13 -6 0 -7 -28 -3 -175 1 -22 1 -47 0 -55 0 -8 0 -50 1 -92 1 -43
-1 -82 -4 -87 -4 -5 -2 -12 3 -15 4 -3 5 -23 1 -45 -4 -22 -4 -45 1 -52 4 -7
6 -16 3 -21 -4 -6 -5 -52 -3 -108 1 -15 0 -205 -1 -245 0 -11 0 -38 1 -60 0
-22 0 -46 0 -52 -1 -7 -1 -19 -2 -25 0 -7 0 -58 1 -113 1 -55 1 -104 0 -110 0
-5 0 -68 0 -140 1 -71 1 -137 1 -145 -1 -8 -1 -33 0 -55 0 -22 0 -46 0 -52 -1
-7 -1 -19 -2 -25 0 -7 0 -58 1 -113 1 -55 1 -104 0 -110 -1 -9 1 -251 2 -280
0 -5 0 -30 -1 -55 -1 -25 -1 -56 -1 -69 0 -27 -20 -45 -34 -31 -5 5 -18 5 -32
0 -14 -6 -26 -6 -29 0 -3 6 -15 6 -30 0 -15 -6 -27 -6 -30 0 -3 6 -15 6 -30 0
-15 -6 -27 -6 -30 0 -3 6 -15 6 -30 0 -15 -6 -27 -6 -30 0 -3 5 -15 6 -28 1
-12 -5 -32 -5 -44 0 -13 5 -25 4 -28 -1 -3 -6 -15 -6 -30 0 -15 6 -27 6 -30 0
-3 -6 -15 -6 -30 0 -15 6 -27 6 -30 0 -3 -5 -15 -6 -28 -1 -12 5 -32 5 -44 0
-13 -5 -25 -4 -28 1 -3 5 -12 7 -19 4 -8 -3 -17 0 -21 6 -8 14 -11 168 -2 176
3 3 2 17 -3 30 -6 14 -6 26 0 29 5 3 6 15 1 27 -4 11 -4 40 -1 65 4 24 3 46
-1 49 -5 2 -4 15 1 28 5 13 6 27 3 30 -7 7 -7 375 0 382 3 3 2 17 -3 30 -6 14
-6 26 0 29 5 3 6 15 1 27 -4 11 -4 40 -1 65 4 24 3 46 -1 49 -5 2 -4 15 1 28
5 13 6 27 3 30 -7 7 -7 375 0 382 3 3 2 17 -3 30 -6 14 -6 26 1 29 5 4 7 11 3
16 -8 13 -9 97 -2 104 3 4 2 20 -2 36 -5 16 -6 29 -2 29 4 0 7 18 7 40 0 22
-3 40 -6 40 -4 0 -3 16 1 35 4 19 4 35 -1 35 -4 0 -6 6 -3 14 9 24 10 79 2
103 -4 12 -3 25 2 28 6 3 6 15 0 30 -6 15 -6 27 0 30 6 3 6 15 0 30 -6 15 -6
27 0 30 6 3 6 15 0 30 -6 15 -6 27 0 30 6 3 6 15 0 30 -6 15 -6 27 0 30 6 3 6
15 0 30 -6 15 -6 27 0 30 6 3 6 15 0 30 -6 15 -6 27 0 30 6 3 6 15 0 30 -6 15
-6 27 0 30 6 3 6 15 0 30 -6 15 -6 27 1 30 5 4 7 11 3 16 -8 13 -9 97 -2 104
3 4 2 20 -2 36 -5 16 -6 29 -2 29 4 0 7 18 7 40 0 22 -3 40 -6 40 -4 0 -3 16
1 35 4 19 4 35 -1 35 -4 0 -6 6 -3 14 9 24 10 79 2 103 -4 12 -3 25 2 28 5 3
5 18 0 35 -5 19 -5 30 1 30 6 0 7 5 4 11 -9 14 -9 214 0 228 3 6 2 11 -4 11
-6 0 -6 11 -1 30 5 17 5 32 0 35 -5 3 -5 16 0 30 6 15 6 27 0 30 -6 3 -6 15 0
29 5 13 6 27 3 30 -7 7 -8 95 0 102 3 3 1 19 -3 35 -5 16 -6 29 -2 29 4 0 7
18 7 40 0 22 -3 40 -6 40 -4 0 -3 16 1 35 4 19 4 35 -1 35 -4 0 -6 6 -3 14 9
24 10 79 2 103 -4 12 -3 25 2 28 6 3 6 15 0 30 -6 15 -6 27 0 30 6 3 6 15 0
30 -6 15 -6 27 0 30 6 3 6 15 0 30 -6 15 -6 27 0 30 6 3 6 15 0 30 -6 15 -6
27 0 30 6 3 6 15 0 30 -6 15 -6 27 0 30 5 3 6 15 0 29 -4 12 -4 29 0 36 5 8 5
21 0 30 -5 9 -5 22 0 30 4 7 6 20 2 28 -5 13 -6 47 -3 96 1 11 8 13 31 6 17
-5 30 -6 30 -2z m3866 2 c14 6 26 6 29 0 3 -5 18 -5 35 0 16 5 32 5 35 0 3 -5
18 -5 34 0 16 4 32 6 35 2 8 -8 102 -5 116 3 5 3 10 2 10 -3 0 -6 14 -7 35 -2
19 4 35 5 35 1 0 -3 18 -6 40 -6 22 0 40 3 40 7 0 4 13 3 30 -2 16 -5 32 -5
35 0 3 4 14 6 25 3 12 -3 19 -8 16 -10 -2 -2 0 -18 4 -34 5 -16 5 -29 0 -29
-5 0 -5 -13 0 -30 5 -16 6 -30 2 -30 -8 0 -7 -68 1 -76 3 -3 2 -17 -3 -30 -5
-13 -6 -26 -1 -28 4 -3 5 -25 1 -49 -3 -25 -3 -54 1 -65 5 -12 4 -24 -1 -27
-5 -3 -5 -18 0 -35 5 -19 5 -30 -1 -30 -6 0 -7 -5 -4 -11 4 -6 7 -57 7 -114 0
-57 -3 -108 -7 -114 -3 -6 -2 -11 4 -11 6 0 6 -11 1 -30 -5 -17 -5 -32 0 -35
5 -3 5 -16 0 -30 -6 -15 -6 -27 0 -30 6 -3 6 -15 0 -29 -5 -13 -6 -27 -3 -30
7 -7 8 -95 0 -102 -3 -3 -1 -19 3 -35 5 -16 6 -29 2 -29 -4 0 -7 -18 -7 -40 0
-22 3 -40 6 -40 4 0 3 -16 -1 -35 -4 -19 -4 -35 1 -35 4 0 6 -6 3 -14 -9 -24
-10 -79 -2 -103 4 -12 3 -25 -2 -28 -6 -3 -6 -15 0 -30 6 -15 6 -27 0 -30 -6
-3 -6 -15 0 -30 6 -15 6 -27 0 -30 -6 -3 -6 -15 0 -30 6 -15 6 -27 0 -30 -6
-3 -6 -15 0 -30 6 -15 6 -27 0 -30 -6 -3 -6 -15 0 -30 6 -15 6 -27 0 -30 -6
-3 -6 -15 0 -30 6 -15 6 -27 0 -30 -6 -3 -6 -15 0 -30 6 -15 6 -27 0 -30 -6
-3 -6 -15 0 -30 6 -15 6 -27 -1 -30 -5 -4 -7 -11 -3 -16 8 -13 9 -97 2 -104
-3 -4 -2 -20 2 -36 5 -16 6 -29 2 -29 -4 0 -7 -18 -7 -40 0 -22 3 -40 6 -40 4
0 3 -16 -1 -35 -4 -19 -4 -35 1 -35 4 0 6 -6 3 -14 -9 -24 -10 -79 -2 -103 4
-12 3 -25 -2 -28 -5 -3 -5 -18 0 -35 5 -19 5 -30 -1 -30 -6 0 -7 -5 -4 -11 9
-14 9 -214 0 -228 -3 -6 -2 -11 4 -11 6 0 6 -11 1 -30 -5 -17 -5 -32 0 -35 5
-3 5 -16 0 -30 -6 -15 -6 -27 0 -30 6 -3 6 -15 0 -29 -5 -13 -6 -27 -3 -30 7
-7 8 -95 0 -102 -3 -3 -1 -19 3 -35 5 -16 6 -29 2 -29 -4 0 -7 -18 -7 -40 0
-22 3 -40 6 -40 4 0 3 -16 -1 -35 -4 -19 -4 -35 1 -35 4 0 6 -6 3 -14 -9 -24
-10 -79 -2 -103 4 -12 3 -25 -2 -28 -6 -3 -6 -15 0 -30 6 -15 6 -27 0 -30 -6
-3 -6 -15 0 -30 6 -15 6 -27 0 -30 -6 -3 -6 -15 0 -30 6 -15 6 -27 0 -30 -6
-3 -6 -15 0 -30 6 -15 6 -27 0 -30 -6 -3 -6 -15 0 -30 6 -15 6 -27 0 -30 -6
-3 -6 -15 0 -30 6 -15 6 -27 0 -30 -6 -3 -6 -15 0 -30 6 -15 6 -27 0 -30 -6
-3 -6 -15 0 -30 6 -15 6 -27 -1 -30 -5 -4 -7 -11 -3 -16 8 -13 9 -97 2 -104
-3 -4 -2 -20 2 -36 5 -16 6 -29 2 -29 -4 0 -7 -18 -7 -40 0 -22 3 -40 6 -40 4
0 3 -16 -1 -35 -4 -19 -4 -35 0 -35 5 0 5 -12 1 -28 -5 -15 -5 -37 0 -49 4
-12 4 -25 -1 -28 -5 -3 -5 -18 0 -35 5 -17 6 -30 2 -30 -4 0 -7 -18 -7 -40 0
-22 3 -40 6 -40 4 0 3 -16 -1 -35 -4 -19 -4 -35 0 -35 17 0 -7 -54 -28 -61
-12 -5 -22 -4 -22 0 0 5 -12 6 -27 2 -16 -4 -43 -4 -60 0 -18 4 -33 3 -33 -1
0 -5 -13 -5 -30 0 -17 5 -32 5 -35 0 -3 -5 -16 -6 -28 -1 -12 4 -35 4 -52 1
-16 -3 -40 -3 -52 1 -12 5 -25 4 -28 -1 -3 -6 -15 -6 -30 0 -15 6 -27 6 -30 0
-3 -6 -15 -6 -30 0 -15 6 -27 6 -30 0 -3 -6 -15 -6 -30 0 -14 5 -27 5 -30 0
-3 -4 -17 -5 -33 -1 -21 6 -28 14 -30 37 -4 42 -2 96 4 105 2 4 0 10 -4 13 -5
3 -6 26 -2 50 4 25 3 50 0 57 -4 6 -5 23 -1 37 4 14 4 45 1 69 -4 24 -3 43 1
43 4 0 5 8 3 18 -7 25 -10 282 -4 282 6 0 2 130 -5 147 -2 7 -1 13 3 13 6 0 7
28 3 175 -1 22 -1 47 0 55 0 8 0 50 -1 92 -1 43 1 82 4 87 4 5 2 12 -3 15 -4
3 -5 23 -1 45 4 22 4 45 -1 52 -4 7 -6 16 -3 21 5 8 6 54 2 176 -2 45 -1 82 2
82 6 0 2 130 -5 147 -2 7 -1 13 3 13 7 0 7 238 0 246 -3 2 -2 24 2 49 4 24 3
49 0 56 -4 6 -5 23 -1 37 4 14 4 45 1 69 -4 24 -3 43 1 43 4 0 5 8 3 18 -7 25
-10 282 -4 282 6 0 2 130 -5 147 -2 7 -1 13 3 13 8 0 6 126 -3 147 -2 7 -1 13
3 13 8 0 6 126 -3 147 -2 7 -1 13 3 13 7 0 7 238 0 246 -3 2 -2 24 2 49 4 24
3 49 0 56 -4 6 -5 23 -1 37 4 14 4 45 1 69 -4 24 -3 43 1 43 4 0 5 8 3 18 -7
25 -10 282 -4 282 6 0 2 130 -5 147 -2 7 -1 13 3 13 8 0 6 126 -3 147 -2 7 -1
13 3 13 8 0 6 126 -3 147 -2 7 -1 13 3 13 4 0 6 18 4 40 -4 34 -1 41 19 49 13
5 28 5 33 1 5 -5 19 -5 32 0z m-2252 -1922 c23 1 60 2 84 1 23 0 49 0 57 1 19
0 37 0 106 -1 31 0 60 1 65 2 5 1 12 0 17 -1 4 -1 23 -2 42 -2 19 0 38 1 43 2
4 1 12 1 17 0 6 -1 53 -1 105 -1 92 2 106 2 133 0 6 0 26 0 42 0 17 1 37 1 45
0 14 0 31 0 90 2 29 1 46 1 121 -2 31 -1 60 0 65 3 5 3 18 2 29 -2 11 -4 32
-4 48 1 15 4 27 4 27 0 0 -4 13 -6 29 -3 32 4 56 -23 41 -48 -4 -7 -5 -23 0
-35 5 -12 5 -27 0 -34 -4 -7 -4 -28 0 -47 4 -19 4 -34 0 -34 -4 0 -4 -16 0
-35 4 -19 5 -35 1 -35 -5 0 -5 -20 -1 -45 4 -25 3 -48 -1 -50 -4 -3 -4 -19 1
-35 5 -17 6 -30 2 -30 -4 0 -7 -18 -7 -40 0 -22 3 -40 6 -40 4 0 3 -16 -1 -35
-4 -19 -4 -35 0 -35 5 0 5 -12 1 -27 -6 -23 -13 -28 -39 -28 -18 0 -32 -3 -32
-6 0 -4 -18 -3 -39 1 -22 4 -45 4 -52 -1 -7 -4 -17 -5 -22 -2 -5 3 -50 5 -100
4 -92 -1 -116 -1 -139 0 -7 0 -26 0 -43 0 -16 -1 -37 -1 -45 0 -14 0 -31 0
-90 -2 -33 -1 -54 -1 -122 2 -32 2 -60 0 -63 -3 -3 -3 -21 -2 -39 2 -19 4 -40
4 -47 -1 -7 -4 -17 -5 -23 -2 -8 6 -107 7 -132 2 -5 -1 -11 -1 -14 1 -15 5
-80 4 -80 -2 0 -4 -12 -3 -27 1 -16 5 -37 5 -48 1 -11 -4 -24 -5 -30 -2 -5 4
-19 6 -30 7 -12 0 -20 7 -20 17 0 9 -3 20 -7 23 -4 4 -3 18 2 31 6 14 6 26 0
29 -6 3 -6 15 0 30 6 15 6 27 0 30 -6 3 -6 15 0 30 6 15 6 27 0 30 -6 3 -6 15
0 30 6 15 6 27 0 30 -6 3 -6 15 0 30 6 15 6 27 0 30 -6 3 -6 15 0 30 6 15 6
27 0 30 -6 3 -6 15 0 30 6 15 6 27 0 30 -6 3 -6 15 0 30 6 15 6 27 0 30 -6 3
-6 15 0 30 6 15 6 27 0 30 -5 3 -7 12 -5 20 3 8 7 22 10 31 3 9 10 12 17 8 6
-4 30 -7 52 -6z"/>
</g>
</svg>
